<svg xmlns="http://www.w3.org/2000/svg" viewBox="0 0 56 56" width="56" height="56"><path opacity=".6" d="M43.504 29.175c.6-.8 3.5-.6 3.5-.6 1.7 0 1.8-1.2 1.4-2-.4-.8-1.4-2.5-3.3-4.2-2.2-1.9-4.7-3.5-6.6-4.5-1.9-.9-4.7-2.3-6.8-3.3-2.2-.9-5.6-2.4-7.6-3-2-.6-2.3-.8-2.5-.8-.2-.1-.4.1-.2.2.3.3 3.9 3.2 5.1 4.2 1.2 1 2.6 2.4 3.5 3.4.7.8 1.4 1.5 1.5 1.8 0 0 0 .1-.1.1-.6.4-3.1 1.7-3.1 1.7-.6.4-3.5-.6-5.7-1.2s-7.8-2.7-8.6-2.9c-.7-.1-1.3-.4-2.2.9-.9 1.2-.7 1.9-.1 2.4.4.3 1.9 1.3 4.1 2.7 2.2 1.4 4.6 3 5.7 3.8.6.4 1.9 1.4 1.9 2 .1 1.2.1 2.6.1 3 0 .3-.1.6-.1.8-.1.2-.3.2-.3.2-3.9 0-7.3-.7-9.7-1.2-2.4-.5-5.9-1.4-6.1-1.4-.3 0-.4.1-.2.3.7.6 4 3.7 9.7 7.1 9.4 5.5 15 6.2 17 6.3 1.5.1 3.7-.1 4.8-.5 1.2-.4 1.9-1.2 2.2-1.4.2-.4.3-.8.2-1.4-.1-.6-.5-.8-1.1-1.5-.6-.7-.8-1.7-.8-2.2 1.6-.4 3.8-.5 5.1-.6 1.4-.1 2.2.2 2.4.4.1.1.3.1.3.1s.1.1.2 0c0-.3-.1-.7-.1-.7h.4c.3.1.8.3.8.3.1-.1.1-.5.1-.7 0-.4-.3-.9-.5-1.2 0-.8-.3-1.6-.8-2.2-.7-.8-2.5-2.2-3.8-3.3 0-.4 0-.7.3-.9z"/></svg>