<svg width="744.09" height="1052.36" xmlns="http://www.w3.org/2000/svg"><path fill="#7f7f7f" d="M45.43 778.05c0-10.66 17.74-102.2 20.74-107.07 1.07-1.73 3.74-12.96 5.92-24.95 5.08-27.96 14.46-58.01 19.98-64.03 2.38-2.59 23.67-8.74 47.33-13.67 72.68-15.14 104.7-26.81 120.52-43.9 7.54-8.14 18.94-16.62 25.33-18.85 10.17-3.54 11.63-5.8 11.63-17.86 0-7.6-2.32-17.15-5.16-21.22-2.83-4.07-6.4-15-7.93-24.29-1.53-9.29-5.96-19.9-9.85-23.6-3.9-3.7-7.08-8.4-7.08-10.47 0-2.07-3.8-8.9-8.45-15.18-7.2-9.75-8.51-16.48-8.91-45.83-.78-56.7 4.08-82.63 19.96-106.55 22.42-33.77 65.7-57.17 106-57.27 15.74-.05 22.35 1.78 28.96 7.99 5 4.69 16.72 9.34 28.11 11.14 22.66 3.58 43.04 17.97 52.94 37.37 4.97 9.76 6.56 22.12 6.56 51.12 0 21.44 1.66 39.27 3.76 40.57 10.2 6.3.69 49.88-15.32 70.15-6.02 7.62-10.98 16.9-11.03 20.64-.05 3.73-3.42 14.15-7.5 23.15-13.57 29.88-8.9 59.46 10.42 66.08 3.6 1.23 12.46 9.84 19.68 19.13 7.23 9.29 17.36 17.85 22.52 19.01 5.16 1.17 28.3 9.56 51.43 18.64 23.12 9.1 43.17 16.53 44.55 16.53 1.37 0 9.82 4.64 18.76 10.32 15.98 10.14 24.12 23.68 24.12 40.1 0 4.43 3.5 14.73 7.76 22.9 6.87 13.16 11.55 38.4 21 113.39l2.02 15.95H45.43v-9.44z"/></svg>