<svg xmlns="http://www.w3.org/2000/svg" viewBox="0 0 271.14017 292.26901" height="311.754" width="289.216"><path opacity=".4" d="M117.716.625c-12.302 14.17-19.642 37.783-19.214 64.63a35.426 35.426 0 0 0-18.574 7.055A35.366 35.366 0 0 0 68.043 88.21c-25.69-7.816-50.405-7.276-67.418.644 6.12 17.74 22.894 35.905 46.359 48.958a35.406 35.406 0 0 0-3.172 19.591 35.4 35.4 0 0 0 7.831 18.254c-19.611 18.34-31.505 40.015-33.152 58.707 18.421 3.569 42.538-1.88 65.573-15.672a35.378 35.378 0 0 0 15.379 12.551 35.414 35.414 0 0 0 19.715 2.342c6.078 26.156 18.924 47.286 34.29 58.06 12.305-14.172 19.635-37.778 19.202-64.627a35.415 35.415 0 0 0 18.563-7.043 35.38 35.38 0 0 0 11.886-15.899c25.689 7.813 50.403 7.264 67.416-.656-6.12-17.741-22.902-35.894-46.37-48.944a35.4 35.4 0 0 0 3.183-19.606 35.397 35.397 0 0 0-7.816-18.23c19.615-18.342 31.49-40.034 33.137-58.73-18.428-3.57-42.532 1.893-65.57 15.697a35.386 35.386 0 0 0-15.382-12.576 35.413 35.413 0 0 0-19.728-2.34C145.893 32.535 133.08 11.396 117.716.624zm3.038 24.745c8.553 7.129 15.884 20.618 19.854 37.259a35.417 35.417 0 0 0-13.647 13.395 35.42 35.42 0 0 0-16.482-9.696c-.174-17.107 3.701-31.971 10.275-40.958zm-20.45 60.382c1.095 6.864 2.64 13.452 4.585 19.68a140.006 140.006 0 0 0-17.653-9.84 27.181 27.181 0 0 1 5.778-5.924 27.183 27.183 0 0 1 7.29-3.916zm54.876-6.738c2.694.26 5.396.922 8.02 2.036a27.186 27.186 0 0 1 7.04 4.35 139.816 139.816 0 0 0-14.748 13.818c.381-6.513.287-13.28-.312-20.204zm-43.067 5.313c6.257.632 12.284 3.41 16.872 8.181 3.303-5.747 8.487-9.9 14.418-12.023 1.557 20.218-2.413 38.171-9.933 48.449-9.782-8.153-17.978-24.613-21.357-44.607zM33.1 96.397c9.342-1.112 20.729.067 32.67 3.623a35.43 35.43 0 0 0 4.78 18.515 35.42 35.42 0 0 0-16.64 9.438c-14.907-8.404-25.846-19.188-30.342-29.377 2.84-1.044 6.046-1.783 9.532-2.198zm189.876-23.313c3.482-.44 6.76-.498 9.768-.172-1.898 10.978-9.898 24.084-22.334 35.846a35.42 35.42 0 0 0-18.429-5.133 35.43 35.43 0 0 0 .16-19.122c10.727-6.341 21.5-10.24 30.835-11.42zm-140.35 33.452c18.29 8.76 31.854 21.17 36.996 32.822-11.954 4.396-30.317 3.277-49.325-3.796a27.158 27.158 0 0 1 15.54-10.531c-3.325-5.733-4.335-12.299-3.21-18.495zm94.735-11.632c2.59 5.74 3.199 12.355 1.359 18.722 6.624-.014 12.811 2.392 17.614 6.461-16.728 11.453-34.258 16.998-46.915 15.625 2.17-12.546 12.32-27.885 27.942-40.808zm26.152 34.655a27.137 27.137 0 0 1 2.243 7.96c.348 2.83.243 5.615-.25 8.277-6.49-2.484-12.968-4.444-19.334-5.873a139.741 139.741 0 0 0 17.341-10.364zM65.636 146.5a139.821 139.821 0 0 0 19.346 5.86 139.87 139.87 0 0 0-17.354 10.365 27.22 27.22 0 0 1-1.992-16.225zm46.318 10.244c3.482-.44 6.773-.5 9.781-.173-2.17 12.55-12.337 27.873-27.968 40.799a27.146 27.146 0 0 1-1.345-18.712 27.16 27.16 0 0 1-17.627-6.46c12.76-8.74 25.983-14.042 37.16-15.454zm49.096-6.028c11.186-1.331 25.303.615 39.794 6.006a27.157 27.157 0 0 1-15.54 10.531 27.153 27.153 0 0 1 3.222 18.482c-18.29-8.76-31.854-21.172-36.995-32.823 2.84-1.044 6.034-1.781 9.52-2.196zm-23.356 12.62c9.783 8.152 17.98 24.622 21.36 44.618-6.268-.625-12.303-3.4-16.898-8.178-3.298 5.74-8.474 9.882-14.394 12.008-1.555-20.215 2.415-38.173 9.932-48.449zm79.536.963c14.911 8.403 25.845 19.185 30.342 29.377-10.454 3.844-25.802 3.462-42.202-1.424a35.42 35.42 0 0 0-4.768-18.517 35.375 35.375 0 0 0 16.628-9.436zM60.744 183.525a35.424 35.424 0 0 0 18.415 5.121 35.43 35.43 0 0 0-.16 19.122c-14.728 8.705-29.534 12.792-40.603 11.591 1.898-10.976 9.913-24.072 22.348-35.834zm54.906 9.54c-.382 6.513-.287 13.281.312 20.205a27.186 27.186 0 0 1-8.021-2.036 27.197 27.197 0 0 1-7.027-4.352 139.715 139.715 0 0 0 14.736-13.817zm50.602-6.213a139.796 139.796 0 0 0 17.64 9.842 27.202 27.202 0 0 1-5.765 5.922 27.188 27.188 0 0 1-7.29 3.916c-1.094-6.863-2.64-13.452-4.585-19.68zm-22.073 29.396a35.414 35.414 0 0 0 16.494 9.694c.177 17.113-3.686 31.966-10.263 40.956-8.556-7.132-15.91-20.607-19.878-37.255a35.417 35.417 0 0 0 13.647-13.395z"/></svg>