<svg xmlns="http://www.w3.org/2000/svg" viewBox="0 0 527.56915 511.27765" height="545.363" width="562.74"><path opacity=".4" d="M256.116 503.621c-14.128-6.741-16.87-11.608-16.87-29.944 0-16.192 3.596-24.458 13.803-31.737 20.696-14.758 8.327-19.167-16.958-6.045-27.863 14.46-27.517 14.512-27.517-4.214 0-12.872 4.936-18.218 27.605-29.904 30.378-15.658 38.46-29.78 9.507-16.61-23.731 10.793-24.843 10.563-24.843-5.148 0-10.247 5.93-16.04 25.332-24.747 24.402-10.949 26.319-11.036 52.144-2.36 21.91 7.36 26.81 11.504 26.81 22.677 0 13.974-4.106 14.53-32.205 4.355-5.905-2.138-10.736-1.523-10.736 1.367 0 2.89 13.803 10.298 30.673 16.465 27.222 9.95 30.672 13.045 30.672 27.506v16.294l-27.605-10.408c-20.733-7.817-27.605-8.656-27.605-3.372 0 3.87 6.575 9.67 14.611 12.891 10.599 4.248 15.472 11.523 17.744 26.496 2.655 17.492.661 22.487-13.077 32.753-18.836 14.075-28.292 14.752-51.485 3.685zM35.274 406.5c-13.956-6.659-16.87-11.685-16.87-29.092 0-17.343 3.321-23.123 18.889-32.873 15.797-9.894 21.367-10.837 34.028-5.763 35.367 14.173 36.249 2.753 1.15-14.883-23.955-12.036-24.856-13.327-14.117-20.234 15.618-10.044 27.292-9.23 49 3.414 24.911 14.511 42.006 13.86 19.734-.751-13.52-8.87-15.598-12.765-9.984-18.714 9.914-10.507 17.88-9.463 43.18 5.659 17.918 10.708 22.727 17.52 25.713 36.42 2.839 17.964 1.372 24.782-6.45 29.994-14.93 9.945-20.05 8.304-20.05-6.426 0-7.244-3.127-14.871-6.949-16.949-5.038-2.739-5.792 4.37-2.74 25.851 3.907 27.51 3.128 30.252-10.887 38.328-13.52 7.793-15.474 7.831-18.73.368-2-4.583-3.635-15.417-3.635-24.078 0-9.485-3.236-15.745-8.14-15.745-5.468 0-7.292 5.071-5.559 15.46 2.066 12.38-1.082 17.752-15.812 26.977-21.514 13.475-28.98 13.913-51.771 3.037zm374.206-21.815c-14.992-6.947-16.924-10.953-17.355-35.972-.457-26.602-.842-27.262-6.974-11.968-8.2 20.452-7.351 19.76-19.269 15.737-7.587-2.56-10.08-10.44-10.08-31.86 0-26.165 1.725-29.616 21.397-42.813 17.866-11.986 23.529-13.351 34.317-8.273l12.92 6.082-13.893 13.006c-20.747 19.425-10.851 20.891 15.707 2.328 26.041-18.202 32.694-19.43 48.876-9.023 10.542 6.78 9.85 8.17-11.037 22.183-24.477 16.42-24.824 29.719-.408 15.648 14.133-8.145 16.96-8.082 39.554.88 22.129 8.776 24.334 11.499 24.334 30.046 0 16.723-3.483 22.577-19.336 32.507l-19.337 12.11-22-10.394c-12.099-5.717-22.882-15.25-23.963-21.186-4.636-25.452-10.117-25.08-13.236.9l-3.348 27.878-16.87-7.816zm-204.417-36.219c-7.135-16.354.068-49.338 11.179-51.19 7.427-1.238 10.735 1.659 10.735 9.397 0 12.735 2.239 13.401 18.807 5.602 10.168-4.786 11.866-3.77 11.866 7.1 0 16.275-46.867 42.202-52.587 29.091zm103.197-8.988c-14.34-5.664-26.072-11.433-26.072-12.819 0-1.386-1.834-6.724-4.076-11.863-3.42-7.839-1.513-8.776 11.852-5.826 12.567 2.774 16.75 1.237 19.826-7.286 4.257-11.799 8.102-12.963 20.315-6.15 5.244 2.925 7.379 13.143 6.135 29.365l-1.908 24.879-26.072-10.3zm-75.148-53.628c0-11.085-3.674-16.849-12.27-19.248-15.754-4.398-15.61-11.537.385-19.066 8.891-4.185 12.103-10.256 10.802-20.423-1.367-10.688.536-13.874 7.285-12.196 13.948 3.47 32.495 2.648 44.408-1.966 8.669-3.358 10.735-1.484 10.735 9.736 0 9.595 5.098 16.244 16.477 21.487l16.477 7.594-13.41 7.366c-9.304 5.111-13.41 12.714-13.41 24.837 0 16.678-.696 17.192-15.336 11.325-11.517-4.616-19.226-4.587-30.96.116-21.13 8.467-21.183 8.443-21.183-9.562zm-72.08-9.781c-10.966-4.8-19.938-10.591-19.938-12.87 0-8.719 41.571-31.793 51.34-28.496 12.489 4.215 12.688 9.734.67 18.507-8.243 6.017-7.872 7.717 3.17 14.52 13.84 8.526 11.172 17.947-4.932 17.411-5.705-.19-19.345-4.272-30.31-9.072zm170.476-1.127c-7.715-4.293-7.48-6.42 1.705-15.346 10.165-9.88 10.07-10.713-2.034-17.866-12.17-7.19-12.229-7.756-1.422-13.605 9.072-4.911 16.34-3.472 37.207 7.367l25.933 13.47-23.148 15.414c-26.142 17.408-26.009 17.371-38.24 10.566zM114.51 241.636c-10.714-5.48-10.592-6.368 2.58-18.7 20.367-19.068 11.23-20.665-13.186-2.306-23.436 17.623-34.923 19.696-51.181 9.24-10.163-6.536-9.34-8.147 11.211-21.934 24.416-16.38 24.378-30.15-.045-16.076-14.133 8.145-16.96 8.082-39.554-.88C2.205 182.204 0 179.48 0 160.933c0-16.61 3.498-22.586 18.846-32.198 18.488-11.58 19.302-11.622 42.941-2.246 19.682 7.806 24.096 12.314 24.096 24.606 0 8.277 2.76 16.55 6.135 18.384 3.734 2.03 6.134-5.94 6.134-20.365 0-28.624 2.999-31.92 22.083-24.271 12.837 5.144 14.725 9.553 14.725 34.392 0 15.67 2.76 29.992 6.134 31.827 3.65 1.984 6.135-4.44 6.135-15.869 0-20.972 1.254-21.88 18.807-13.618 8.959 4.218 11.865 11.376 11.865 29.223 0 21.023-2.641 25.477-23.887 40.277-27.08 18.864-24.575 18.195-39.505 10.56zm252.672-23.634c-19.55-11.271-22.646-16.043-24.627-37.943-1.756-19.423.076-26.152 8.156-29.955 15.048-7.084 15.97-6.573 20.44 11.329 6.638 26.581 14.252 13.148 8.336-14.706-4.932-23.218-4.148-26.513 8.267-34.75 16.441-10.908 23.26-8.323 23.26 8.818 0 16.78 5.951 29.8 13.622 29.8 3.396 0 4.95-7.342 3.452-16.314-2.318-13.889.349-17.982 17.944-27.547 18.142-9.862 22.946-10.402 39.349-4.427 18.368 6.692 29.92 23.183 29.92 42.71 0 5.61-9.346 14.757-21.543 21.087-17.833 9.254-24.176 10.124-36.833 5.052-18.358-7.358-29.276-.292-12.977 8.398 6.304 3.362 16.987 9.89 23.74 14.51 12.158 8.315 12.128 8.483-2.963 17.18-14.444 8.325-16.393 8.097-37.218-4.35-12.087-7.224-26.954-13.094-33.037-13.044-7.757.064-4.883 3.57 9.619 11.735 19.276 10.854 19.925 12.13 9.563 18.794-14.81 9.525-20.163 8.79-46.47-6.377zm-166.74-1.311c-6.04-8.982-10.8-48.968-6.103-51.28 2.769-1.363 16.766 2.121 31.106 7.743 17.989 7.053 26.072 13.537 26.072 20.912 0 8.709-2.843 10.063-15.337 7.305-12.726-2.81-15.336-1.45-15.336 7.99 0 10.793-14.555 16.023-20.401 7.33zm101.928-12.14c-3.704-12.46-4.661-12.702-20.584-5.206-10.126 4.766-11.859 3.777-11.819-6.745.034-8.751 7.31-15.978 25.071-24.9 13.763-6.915 25.914-11.77 27.002-10.792 4.462 4.015 5.159 45.73.866 51.84-6.994 9.953-16.933 7.922-20.536-4.197zm-75.392-47.5c-13.41-5.755-22.206-13.759-23.43-21.324-2.179-13.456 2.69-14.677 26.626-6.673 11.814 3.951 15.625 3.756 13.93-.715-1.282-3.384-14.632-10.135-29.666-15.001-23.886-7.732-27.579-11.073-29.275-26.486l-1.941-17.637 22.627 8.316c12.445 4.573 25.051 8.315 28.013 8.315 11.062 0 4.84-9.277-10.286-15.34-13.959-5.593-15.467-8.972-13.803-30.917 1.524-20.093 4.933-26.266 18.476-33.465 15.33-8.148 18.211-8.155 37.454-.084 16.815 7.053 21.58 12.726 24.646 29.342 3.321 18 1.69 22.082-12.915 32.35-23.08 16.225-12.938 21.995 14.046 7.992 12.145-6.303 23.306-11.46 24.8-11.46 1.494 0 2.716 7.181 2.716 15.96 0 13.294-4.78 18.423-28.64 30.721-26.84 13.835-29.331 25.521-2.776 13.02 17.295-8.14 19.147-7.402 19.147 7.635 0 10.155-5.855 16.007-24.293 24.28-28.792 12.92-28.107 12.905-55.456 1.17z"/></svg>