<svg xmlns="http://www.w3.org/2000/svg" viewBox="0 0 286.15557 281.79129" height="300.577" width="305.233"><path opacity=".4" d="M124.713.625l-13.019.692-2.086 35.375-19.848-15.57-1.712 25.186-27.695-22.136-9.228 9.21 35.838 28.654-1.057 15.453-26.668-21.313-9.228 9.21 34.82 27.822-.348 5.118-4.749 1.909-37.237-24.523-5.909 11.63 28.518 18.769-14.37 5.784-38.317-25.233L6.51 98.28l29.595 19.5-23.418 9.4 20.96 14.075L.625 154.174l3.362 12.604 42.746-16.713 12.843 8.644L27.79 171.14l3.363 12.594 41.51-16.236 4.26 2.846-.734 5.087-39.844 19.974 7.11 10.937L73.97 191.04l-2.188 15.324-41.002 20.578 7.111 10.928 31.672-15.887-3.55 24.982 22.661-11.112L83.36 270.9l12.59 3.393 6.888-45.37 13.912-6.817-5.121 33.763 12.59 3.383 6.683-44.077 4.605-2.253 4.037 3.161-2.628 44.504 13.02-.692 2.01-34.09 12.19 9.56-2.694 45.801 13.02-.691 2.086-35.386 19.857 15.58 1.72-25.174 27.678 22.125 9.227-9.21-35.828-28.644 1.047-15.453 26.669 21.302 9.226-9.2-34.82-27.832.35-5.118 4.748-1.909 37.237 24.523 5.908-11.619-28.526-18.78 14.381-5.793 38.316 25.243 5.908-11.62-29.595-19.5 23.409-9.41-20.93-14.082 33-12.901-3.363-12.594-42.734 16.705-12.845-8.635 31.778-12.442-3.363-12.593-41.511 16.235-4.258-2.855.732-5.068 39.845-19.983-7.111-10.928-30.516 15.302 2.177-15.325 41.013-20.587-7.11-10.927-31.694 15.894 3.562-24.99-22.65 11.102 5.314-35.036-12.591-3.384-6.887 45.36-13.911 6.807 5.12-33.753-12.59-3.383-6.684 44.077-4.605 2.253-4.036-3.16 2.627-44.505-13.019.692-2.01 34.08-12.19-9.56L124.713.625zm-24.045 45.01l39.467 30.946-1.474 18.284-22.771-15.21-3.967 27.227L97.26 95.668l3.408-50.034zm103.7 10.899l-7.07 49.64-16.475 7.83 1.416-27.107L157 96.574l2.338-17.985 45.028-22.055zm-80.386 40.142c.476.06 1.115.47 1.958 1.35 3.355 2.154 6.644 4.412 9.938 6.657l-.134.045-1.087 16.683-12.52-10.122-1.195.58c.58-3.956 1.165-7.911 1.745-11.867.015-1.71.23-2.973.871-3.272a.768.768 0 0 1 .424-.055zm47.28 5.377c-.24 4.862-.538 9.727-.797 14.585l-14.871 7.333 2.557-16.091-.724-.494 13.835-5.333zm-85.366 9.229l15.115 10.425-24.445 12.069 21.595 17.037-17.171 7.151-41.612-27.968 46.518-18.714zm119.26 12.544l41.632 27.96L200.26 170.5l-14.975-10.331 24.332-12.419-21.028-17.027 16.567-6.897zm-96.405 4.904l-.178 1.215 13.396 8.692-15.066 5.78-.071.959c-3.083-2.438-6.17-4.875-9.252-7.312-1.475-.868-2.459-1.686-2.396-2.391.048-.549.74-1.032 2.318-1.418 3.712-1.916 7.487-3.71 11.249-5.525zm70.866 7.916c3.794 3.064 7.59 6.133 11.383 9.197-4.382 2.249-8.783 4.444-13.17 6.676l-14.208-9.494 15.995-6.379zm-27.944 23.016l13.287 10.491c-.767 4.88-1.528 9.756-2.295 14.636-4.204-2.713-8.38-5.462-12.573-8.188l.716-.283.865-16.657zm-20.677-1.806l-2.464 16.907.046.035c-3.59 1.426-7.18 2.856-10.77 4.282-1.488.842-2.684 1.268-3.264.86-.45-.316-.518-1.143-.064-2.703.203-4.295.548-8.588.865-12.875l1.13.895 14.52-7.4zm-25.62 9.906l-1.793 27.376 25.602-10.206-2.367 18.26-45.04 22.065 7.07-49.65 16.527-7.845zm69.17 7.38l14.36 10.982-3.408 50.034-39.468-30.946 1.459-18.137 22.815 14.797 4.242-26.73z"/></svg>