<svg xmlns="http://www.w3.org/2000/svg" viewBox="0 0 363.45909 311.02452" height="331.759" width="387.69"><path opacity=".4" d="M111.022 301.604c-9.212-13.908-4.065-31.464 11.294-38.524 12.784-5.877 12.592-6.088-3.713-4.09-14.603 1.79-16.914.383-15.337-9.339 1.357-8.364 7.64-12.345 23.328-14.783 13.17-2.046 16.135-3.61 7.668-4.047-16.939-.871-17.903-9.19-1.937-16.707 25.245-11.883 55.614.768 55.614 23.167 0 10.725-6.543 11.524-18.618 2.273-4.842-3.71-2.373-.274 5.487 7.634 10.101 10.165 13.05 17.812 10.063 26.09l-4.226 11.713-15.297-12.602-15.297-12.602 7.306 14.156c5.503 10.66 5.583 16.988.325 25.63-8.67 14.249-37.73 15.514-46.66 2.03zm154.782-27.178c-6.026-5.857-8.669-14.857-6.733-22.931 3.09-12.885 2.89-12.838-6.562 1.548-5.363 8.16-12.128 14.838-15.033 14.838-8.996 0-13-16.453-6.573-27.015 9.067-14.9 7.404-19.756-2.651-7.74-8.349 9.978-8.968 10.01-13.076.688-10.355-23.504 29.848-55.777 50.606-40.625 7.55 5.51 6.752 7.51-5.347 13.414-17.246 8.417-11.835 9.335 10.667 1.81 11.709-3.916 18.931-3.724 24.938.66 11.992 8.754 10.472 15.643-3.452 15.643-6.548 0-13.903 2.84-16.342 6.312-3.054 4.346-.979 5.146 6.66 2.568 13.32-4.496 33.858 10.027 33.858 23.944 0 5.264-4.338 13.385-9.64 18.049-12.732 11.198-29.075 10.739-41.32-1.163zm-82.647-61.934c-8.386-7.85-11.237-14.813-7.971-19.46 3.904-5.558 6.154-5.718 9.686-.69 3.529 5.022 5.792 4.852 9.713-.728 9.262-13.18 19.261 2.254 12.138 18.734-7.516 17.386-7.306 17.367-23.566 2.144zM60.53 202.489c2.7-16.175 2.428-16.413-6.971-6.112-22.902 25.099-60.835 12.824-52.342-16.937 4.5-15.769 29.736-24.817 41.17-14.76 11.605 10.207 19.326 6.757 8.476-3.788-12.725-12.368-12.701-15.096.165-19.439 6.62-2.234 14.863.982 23.004 8.979 6.978 6.853 10.617 10.103 8.087 7.221-7.823-8.908-5.129-13.872 7.527-13.872 17.214 0 32.35 22.413 27.237 40.332-4.81 16.859-19.789 23.942-27.621 13.062-4.122-5.726-5.444-4.76-5.516 4.032-.08 9.804-10.521 18.113-22.762 18.113-1.794 0-1.998-7.574-.454-16.83zm62.168-7.495c2.143-4.912 3.896-12.374 3.896-16.583 0-4.208 4.141-7.652 9.202-7.652 5.06 0 9.202 3.642 9.202 8.094 0 4.451 2.198 8.093 4.886 8.093 6.144 0 5.91-24.68-.285-30.128-7.574-6.658-5.226-13.037 4.798-13.037 5.17 0 11.617-5.272 14.326-11.714 3.265-7.762 6.425-9.582 9.366-5.396 2.442 3.475 11.092 6.319 19.222 6.319 10.41 0 13.77 2.32 11.36 7.843-1.883 4.313 1.304 13.419 7.081 20.233 6.054 7.142 9.049 8.58 7.07 3.395-5.327-13.951 12.668-16.327 23.227-3.067 12.745 16.004 11.973 18.412-7.26 22.657-12.325 2.721-18.774 1.127-24.917-6.16-7.984-9.47-8.612-9.445-17.133.671-6.865 8.15-10.49 9.056-16.184 4.047-10.846-9.54-16.065-7.914-18.26 5.686-1.522 9.424-6.607 12.53-22.727 13.885-17.22 1.447-20.101.22-16.87-7.186zm129.959-38.072c-7.067-9.486-9.023-18.982-6.222-30.201 3.422-13.704 6.48-15.962 18.805-13.89 11.27 1.895 14.717.123 14.717-7.568 0-6.643 4.414-10.043 13.036-10.043 11.26 0 12.526 2.242 9.294 16.455-2.32 10.206-1.447 15.208 2.3 13.17 3.324-1.806 6.043-6.52 6.043-10.474 0-12.867 31.28-15.618 44.58-3.921 25.344 22.291-13.301 55.45-40.596 34.833-12.682-9.58-12.686-9.57-2.21 5.053 13.27 18.521 13.147 20.423-1.329 20.423-6.503 0-17.545-6.398-24.538-14.217-6.993-7.819-12.714-11.604-12.714-8.412 0 3.193 2.805 7.33 6.234 9.194 3.43 1.864 4.647 5.65 2.705 8.412-6.403 9.114-19.636 5.24-30.105-8.814zM112.625 146.45c-10.726-12.967-10.651-13.236 4.587-16.6 19.967-4.407 40.516 1.616 28.253 8.282-4.614 2.508-6.694 8.448-4.621 13.199 6.075 13.924-15.793 10.141-28.22-4.881zm103.598-10.37c2.42-5.547.288-8.485-6.156-8.485-17.936 0-10.224-14.774 9.525-18.248 10.66-1.875 20.231-2.664 21.268-1.752 5.519 4.854-9.297 33.744-18.067 35.23-7.179 1.216-9.158-.815-6.57-6.745zm-62.317-15.306c-1.801-4.128-.317-14.348 3.298-22.71l6.573-15.205 15.266 12.614c15.984 13.208 16.975 23.929 2.234 24.171-4.77.078-12.144 2.053-16.385 4.389-4.605 2.535-9.031 1.222-10.986-3.26zm-61.084-4.016c-2.103-2.993 2.565-7.648 10.374-10.345 11.525-3.981 9.127-4.734-12.75-4.001-31.442 1.053-40.08-8.899-14.768-17.017l17.176-5.51L76.2 79.46c-21.682-.555-33.333-18.13-23.983-36.18 13.422-25.91 59.119-8.652 52.337 19.766-2.2 9.225-.198 7.621 6.548-5.243 8.827-16.832 10.602-17.757 19.339-10.072 7.742 6.81 8.228 10.75 2.489 20.181-3.922 6.446-5.79 14.62-4.15 18.166 1.639 3.545 3.198 1.994 3.464-3.447.269-5.48 3.905-8.827 8.153-7.504 10.942 3.407 6.937 32.225-5.599 40.287-12.665 8.146-36.656 8.914-41.976 1.344zm94.628-24.693c-14.254-13.345-12.301-34.448 2.385-25.779 4.336 2.56 2.923.623-3.14-4.304-11.27-9.157-14.291-21.441-6.879-27.961 2.28-2.006 10.562 1.655 18.404 8.135 13.725 11.34 21.004 7.2 7.783-4.428-11.032-9.704-.16-32.953 17.204-36.786 23.409-5.168 41.065 11.75 32.63 31.263-3.437 7.95-10.295 14.455-15.24 14.455-4.946 0-10.672 2.391-12.726 5.314-2.316 3.296 3.371 4.065 14.974 2.024 16.16-2.843 18.709-1.73 18.709 8.175 0 7.512-3.87 11.465-11.223 11.465-7.608 0-11.065 3.809-10.735 11.826.374 9.094-4.052 12.664-19.164 15.454-15.838 2.924-22.237 1.207-32.982-8.853z"/></svg>