<svg xmlns="http://www.w3.org/2000/svg" viewBox="0 0 225.38979 231.11547" height="246.523" width="240.416"><path opacity=".4" d="M87.623.625L80.775 5.98l27.792 35.581V63.76c-.702-1.091-1.477-2.132-2.368-3.082-10.603-4.298-20.925-9.41-31.691-13.23a2.35 2.35 0 0 0-1.16.428c-2.052 2.592-1.11 6.136-1.894 9.15-.928 8.82-2.473 17.673-2.872 26.546.307.602.62 1.203.942 1.797L50.425 74.336l-16.673-41.22-8.046 3.261L38.194 67.28l-17.852-10.3-4.347 7.513 18.337 10.586L.625 79.815l1.208 8.598 44.721-6.278 19.298 11.138c-1.339.056-2.672.19-3.975.476-8.954 6.798-18.128 13.35-26.936 20.306-1.386 2.377 1.125 4.557 3.1 5.46 8.129 6.082 16.132 12.4 24.473 18.147.822.088 1.64.148 2.463.19L45.86 148.885l-44.027-6.182-1.208 8.607 33.004 4.632-17.853 10.31 4.347 7.523L38.45 163.19l-12.745 31.558L33.752 198l16.92-41.868 19.26-11.118c-.61 1.182-1.146 2.39-1.54 3.662 1.543 11.276 2.264 22.72 4.375 33.888 1.741 2.114 4.565.466 6.458-.523 9.246-4.045 18.749-7.602 27.754-12.175a65.346 65.346 0 0 0 1.588-2.501v22.19l-27.792 35.58 6.848 5.355 20.944-26.82v21.161h8.684v-20.61l20.525 26.27 6.848-5.355-27.373-35.04v-22.065a20.89 20.89 0 0 0 1.95 2.482c10.525 4.277 20.778 9.317 31.462 13.154 2.826-.435 2.764-3.83 2.816-6.02 1.142-10.003 2.811-19.986 3.338-30.027a83.931 83.931 0 0 0-1.379-2.616l19.27 11.128L191.628 198l8.065-3.252-12.764-31.558 18.338 10.585 4.347-7.523-17.853-10.31 33.004-4.632-1.208-8.607-44.027 6.182-19.08-11.024a21.203 21.203 0 0 0 3.073-.418c8.954-6.799 18.113-13.364 26.926-20.316 1.386-2.377-1.116-4.557-3.092-5.46-8.121-6.084-16.134-12.382-24.462-18.147-1.12-.13-2.243-.2-3.367-.237l19.317-11.148 44.712 6.278 1.208-8.598-33.698-4.737 18.328-10.586-4.337-7.514-17.853 10.301 12.488-30.902-8.065-3.262-16.654 41.221-19.117 11.033c.447-.927.838-1.878 1.15-2.863-1.532-11.264-2.291-22.673-4.346-33.84-1.775-2.21-4.693-.482-6.61.561-9.15 3.882-18.445 7.589-27.402 11.889a36.832 36.832 0 0 0-1.398 2.035V41.02l27.373-35.04-6.848-5.354-20.525 26.27V6.285h-8.684v21.161L87.623.625zm55.07 62.992c.817 6.146 1.617 12.295 2.416 18.442-2.495 4.471-5.2 8.858-7.628 13.326a3.367 3.367 0 0 0-.01.608l-4.965 2.863-15.256 8.817v-23.34a3.717 3.717 0 0 0 2.007-2.606c2.04-3.742 4.108-7.566 6.534-11.033 2.685-1.393 5.674-2.164 8.39-3.548 2.836-1.175 5.675-2.354 8.512-3.529zm-59.968.038c1.366.566 2.733 1.137 4.1 1.703 4.356 1.815 8.719 3.612 13.058 5.46 2.66 4.41 5.084 9.009 7.809 13.353.29.142.579.24.875.314v23.426l-15.684-9.055-4.955-2.863c-.564-2.981-3.043-5.089-4.119-7.875-1.393-2.692-4.208-5.276-3.262-8.56.96-5.253 1.38-10.607 2.178-15.903zm.866 39.862l4.955 2.862 15.465 8.931-15.684 9.055-4.974 2.872c-.84-.591-1.911-.806-2.93-.399-4.3.125-8.706.216-13.001-.076-2.47-1.452-4.455-3.623-6.905-5.193l-7.819-5.992a1274.74 1274.74 0 0 1 14.847-11.261c5.189-.176 10.496.314 15.637-.286.142-.166.272-.341.409-.513zm58.084.076c.922.848 2.185 1.267 3.453.751 4.235-.215 8.541-.104 12.745.038 2.574 1.388 4.533 3.678 7.029 5.231 2.6 2 5.193 3.999 7.799 5.992-4.91 3.77-9.818 7.548-14.742 11.3-5.196.138-10.496-.208-15.675.142-.082.063-.152.133-.228.2l-4.984-2.882-15.693-9.055 15.474-8.93 4.822-2.787zm-33.108 19.117v24.082l-.418.03c-2.258 1.926-2.844 5.072-4.699 7.342-1.653 2.527-2.452 6.224-5.697 7.171-5.022 2.04-10.027 4.12-15.037 6.22-.809-6.175-1.658-12.34-2.378-18.527 2.473-4.534 5.356-8.903 7.637-13.506a4.54 4.54 0 0 0-.17-.828l4.86-2.805 15.902-9.179zm8.684.238l15.474 8.94 4.813 2.777c-.28 1.289.241 2.673 1.227 3.605 2.271 3.668 4.665 7.394 6.334 11.338-.95 5.94-1.564 11.953-2.406 17.928-5.716-2.385-11.459-4.72-17.168-7.124-2.758-4.433-4.99-9.282-8.055-13.468-.072-.014-.147-.025-.22-.038v-23.958z"/></svg>