<svg xmlns="http://www.w3.org/2000/svg" viewBox="0 0 569.03324 559.89399" height="597.22" width="606.969"><path opacity=".4" d="M257.716 553.248c-17.026-18.044 13.328-44.742 33.842-29.767 5.07 3.701 8.388 13.007 7.374 20.68-1.383 10.46-5.812 14.357-17.705 15.573-8.724.891-19.304-2.027-23.511-6.486zm-9.048-60.325c-5.294-12.135-5.436-11.914 13.146-20.478 14.91-6.87 18.83-6.756 33.74.991 18.656 9.693 19.264 10.963 10.83 22.626-4.646 6.422-8.223 6.803-17.326 1.844-7.086-3.86-14.779-4.408-20.124-1.432-12.257 6.825-16.027 6.164-20.266-3.551zm52.38-30.34c-19.528-10.875-21.049-10.95-42.2-2.079-17.722 7.434-22.921 7.847-27.03 2.147-8.603-11.93-6.202-14.895 21.732-26.832l27.009-11.541 28.563 14.723c24.938 12.854 27.57 15.868 20.735 23.751-4.304 4.966-7.99 9.498-8.19 10.07-.2.573-9.479-4.035-20.62-10.24zm9.762-36.822l-29.221-16.139-30.821 13.737c-16.952 7.556-33.478 12.293-36.726 10.528-13.54-7.36-3.769-18.258 30.977-34.546l36.88-17.29 37.128 19.837c25.515 13.633 36.045 22.318 33.666 27.77-1.904 4.364-3.461 8.95-3.461 10.19 0 5.132-10.784 1.178-38.422-14.087zm214.63 10.223c-14.197-6.989-13.498-29.893 1.123-36.776 15.009-7.065 41.364 9.79 35.68 22.82-5.66 12.97-24.381 20.07-36.802 13.956zM9.51 417.709c-12.32-10.836-12.674-20.852-1.04-29.345 19.636-14.334 49.8 6.719 36.414 25.414-9.215 12.87-23.417 14.447-35.374 3.93zm373.37-8.107c-2.365-3.367-2.411-21.64-.102-40.606l4.198-34.484 33.487-16.851c18.418-9.268 37.53-15.487 42.473-13.819 17.249 5.822 8.76 17.807-21.418 30.24l-30.403 12.525-1.803 32.857c-1.399 25.5-4.078 33.238-11.966 34.559-5.59.936-12.1-1.054-14.465-4.42zm39.966-24.06v-29.585l30.09-13.412c25.91-11.548 30.597-12.249 33.74-5.045 5.91 13.547 4.352 17.352-8.583 20.962-20.267 5.658-30.709 18.636-30.709 38.166 0 14.902-2.386 18.5-12.269 18.5-10.777 0-12.27-3.598-12.27-29.586zm40.8 25.508c-7.401-10.534 4.838-34.642 21.416-42.182 16.11-7.327 18.12-7.236 21.707.987 2.387 5.472-.087 11.662-6.245 15.622-5.609 3.608-10.198 11.755-10.198 18.105 0 7.83-3.83 11.545-11.907 11.545-6.55 0-13.197-1.835-14.772-4.077zM73.179 391.49c0-7.478-4.253-15.69-9.45-18.248-5.733-2.822-7.889-8.234-5.479-13.758 5.062-11.602 14.298-11.367 32.314.823 19.145 12.953 16.852 40.503-3.582 43.055-11.181 1.397-13.803-.858-13.803-11.872zm42.942-8.919c0-19.138-2.58-23.104-21.389-32.864-18.328-9.512-20.463-12.62-14.918-21.732 6.345-10.429 6.959-10.378 32.123 2.665 24.742 12.824 25.72 14.371 27.494 43.496 1.668 27.374.663 30.2-10.735 30.2-10.6 0-12.575-3.42-12.575-21.765zm38.787-9.607l3.728-31.372-30.338-15.84c-16.685-8.712-30.392-18.952-30.46-22.754-.244-13.884 17.122-12.071 50.932 5.315l34.589 17.786.12 39.118c.12 38.719-.045 39.119-16.089 39.119-16.092 0-16.183-.228-12.482-31.372zm174.676 11.152c-24.212-17-28.9-23.277-29.217-39.132-.208-10.387-2.042-24.348-4.077-31.026-5.027-16.5 3.144-15.267 33.117 4.994 22.415 15.153 25.812 20.414 29.374 45.488 2.215 15.594 3.041 30.957 1.835 34.139-1.206 3.182-15.17-3.326-31.032-14.463zm-125.033-9.791c2.358-14.654 5.49-30.286 6.96-34.737 2.786-8.432 56.58-40.793 61.142-36.781 1.433 1.26.314 15.048-2.488 30.639-5.184 28.839-7.792 31.714-51.763 57.066l-18.137 10.456 4.286-26.643zm132.412-80.378l-27.605-12.779 29.648-11.257c16.306-6.192 33.486-11.258 38.176-11.258 10.578 0 64.069 22.532 64.069 26.988 0 4.186-55.377 21.712-67.48 21.356-5.061-.149-21.624-6.021-36.808-13.05zm-180.968-4.901l-30.672-12.634 24.18-9.036c40.425-15.107 48.573-15.223 83.037-1.178l33.189 13.524-29.304 11.048c-36.84 13.89-42.833 13.761-80.43-1.724zm267.609-36.626c-36.527-20.427-38.648-22.726-35.15-38.103 2.046-9 3.72-25.774 3.72-37.273 0-17.311 2.111-20.908 12.27-20.908 10.881 0 12.268 3.597 12.268 31.811v31.812l30.817 17.393c26.532 14.975 29.758 18.616 23.206 26.191-4.185 4.84-7.756 9.253-7.935 9.807-.179.554-17.817-8.775-39.196-20.73zm-319.558 1.158c-5.746-9.445-3.575-12.128 17.452-21.563 37.12-16.657 43.699-24.889 43.699-54.682 0-23.186 1.606-26.593 12.538-26.593 11.61 0 12.404 2.809 10.735 37.984l-1.802 37.984-38.03 18.828c-36.934 18.287-38.217 18.518-44.592 8.042zm196.178-1.628c.215-38.722 7.52-52.668 37.843-72.246 16.58-10.705 31.079-18.567 32.218-17.47 1.14 1.098-.646 16.6-3.97 34.452-5.735 30.808-7.569 33.345-36.1 49.951-29.404 17.114-30.057 17.23-29.991 5.313zm-60.165-13.53c-21.799-17.737-25.192-23.73-27.494-48.562-3.119-33.646 1.55-34.968 34.884-9.873 21.513 16.196 24.266 21.158 26.83 48.358 1.716 18.196.419 30.31-3.247 30.31-3.357 0-17.295-9.105-30.973-20.234zm214.994-10.201c-25.511-13.53-26.071-14.453-26.071-42.955 0-27.473.871-29.128 15.336-29.128 14.086 0 15.336 1.978 15.336 24.28 0 13.354 2.07 24.334 4.6 24.4 12.714.332 32.51 19.886 28.783 28.43-5.135 11.767-6.707 11.56-37.984-5.027zM85.59 221.117c-5.897-9.691-4.09-12.116 14.98-20.115 19.273-8.084 21.685-11.404 21.685-29.848 0-13.865 3.191-21.83 9.614-23.998 17.009-5.74 22.98 6.122 17.167 34.105-4.771 22.97-8.351 27.398-31.066 38.42-25.66 12.45-25.678 12.45-32.38 1.436zm399.967-19.424c-18.631-11.478-19.652-45.557-1.365-45.557 8.65 0 12.27 3.597 12.27 12.19 0 6.706 5.73 15.34 12.735 19.188 10.231 5.62 11.29 8.527 5.383 14.786-9.252 9.806-12.222 9.743-29.023-.607zM64.234 189.858c-2.761-6.323.062-11.887 8.545-16.845 6.968-4.071 12.668-11.962 12.668-17.536 0-6.536 4.355-10.133 12.27-10.133 9.914 0 12.268 3.597 12.268 18.747 0 15.301-3.325 20.258-18.099 26.978-22.55 10.256-22.648 10.252-27.652-1.21zm185.738-32.664c-29.39-16.82-33.887-21.45-28.717-29.57 5.697-8.946 8.478-8.444 39.388 7.11l33.257 16.737 31.16-14.916c26.168-12.527 32.057-13.666 36.772-7.11 3.089 4.293 5.625 9.02 5.637 10.504.028 3.528-71.063 37.857-77.615 37.478-2.769-.16-20.716-9.265-39.882-20.233zm277.663 12.962c-17.026-18.043 13.328-44.741 33.842-29.766 5.07 3.7 8.388 13.006 7.374 20.68-1.382 10.46-5.812 14.356-17.705 15.572-8.724.892-19.304-2.027-23.511-6.486zM21.625 159.88c-15.642-10.06-10.826-32.91 7.415-35.184 27.134-3.383 40.82 17.4 22.229 33.752-11.715 10.304-15.56 10.49-29.644 1.432zm240.25-37.706c-25.118-13.029-25.518-13.623-17.069-25.379 5.076-7.061 8.57-6.774 27.68 2.278 20.653 9.783 23.049 9.865 43.044 1.479 19.992-8.385 21.506-8.334 27.139.923 4.955 8.144 1.979 11.774-17.576 21.44-28.914 14.294-34.355 14.23-63.218-.741zm15.107-33.79c-14.508-8.938-17.783-21.082-7.23-26.818 3.521-1.915 10.246-.676 14.944 2.753 6.22 4.541 11.91 4.649 20.944.396 10.148-4.776 13.585-3.897 18.9 4.836 5.527 9.085 3.784 11.907-11.708 18.954-22.1 10.052-19.322 10.061-35.85-.121zm2.14-54.036c-11.714-10.304-11.925-13.687-1.627-26.074 11.437-13.758 37.415-9.521 40.001 6.523 3.847 23.865-19.781 35.903-38.373 19.551z"/></svg>