<svg xmlns="http://www.w3.org/2000/svg" viewBox="0 0 584.17096 476.17401" height="507.919" width="623.116"><path opacity=".4" d="M264.899 461.398c-11.411-18.638-11.408-18.677 3.279-32.427l14.704-13.767 11.503 15.98c11.992 16.658 9.264 28.928-9.471 42.604-6.91 5.044-10.824 2.62-20.015-12.39zM387.74 438.64C363.48 413.92 358 404.737 359.573 391.428c2.833-23.948 5.106-25.184 28.357-15.432 18.57 7.789 21.786 12.322 27.614 38.934 3.629 16.565 7.922 35.58 9.54 42.258 4.658 19.217-4.965 14.437-37.343-18.548zm-254.405 10.475c0-2.565 6.394-21.337 14.21-41.716 12.95-33.767 16.215-37.663 36.808-43.934l22.596-6.88v22.649c0 20.346-2.965 24.876-29.139 44.556-34.516 25.953-44.472 31.623-44.472 25.325zm170.834-31.75l-22.404-13.543-25.97 11.654c-21.01 9.427-26.967 10.272-31.18 4.426-2.865-3.976-5.251-9.085-5.303-11.354-.085-3.746 32.466-23.332 44.943-27.042 2.839-.845 6.082-16.454 7.205-34.687 1.124-18.234 5.375-38.629 9.448-45.322 7.246-11.909 7.597-11.946 16.35-1.755 6.713 7.817 8.05 19.323 5.358 46.136L299.03 381.6l24.507 14.265c26.319 15.319 28.576 19.165 17.146 29.219-9.52 8.374-10.097 8.252-36.513-7.718zm23.486-32.516c-2.217-1.95-2.34-16.192-.275-31.65 2.446-18.306 1.356-29.408-3.127-31.845-8.526-4.634-9.176-35.478-.748-35.478 9.503 0 30.673 20.614 30.673 29.868 0 4.692 12.088 12.843 27.876 18.795 25.31 9.542 27.242 11.55 21 21.81-4.665 7.667-10.175 10.105-17.14 7.583-21.16-7.66-28.658-5.302-30.61 9.624-1.853 14.162-17.242 20.447-27.65 11.293zm-110.723-10.1c-2.116-4.852-3.848-13.418-3.848-19.037 0-8.757-2.265-9.46-15.851-4.916-18.583 6.214-27.09 2.94-27.09-10.428 0-6.565 7.878-11.695 24.82-16.16 15.537-4.094 27.261-11.253 31.349-19.143 3.59-6.932 13.125-15.247 21.188-18.478 13.34-5.346 14.66-4.654 14.66 7.688 0 7.46-4.389 19.454-9.752 26.655-6.227 8.359-9 21.456-7.669 36.23 1.817 20.172.414 23.35-10.937 24.774-7.68.964-14.6-1.984-16.87-7.186zm201.017-18.317l4.007-26.565-33.474-17.949c-28.177-15.109-46.573-33.124-46.573-45.61 0-3.94 39.128 3.818 42.941 8.515 1.687 2.078 13.724 10.07 26.749 17.76l23.68 13.982 27.962-10.542c22.185-8.364 28.996-9.108 32.97-3.6 9.338 12.946 5.251 18.775-19.05 27.171-22.784 7.872-24.497 10.037-28.396 35.89-3.737 24.778-5.675 27.514-19.486 27.514-14.825 0-15.203-.886-11.33-26.566zm53.623 7.145c-11.861-22.897-8.915-29.14 13.754-29.14 17.294 0 22.002 2.709 28.43 16.36 8.927 18.955 8.997 18.855-16.112 23.05-16.181 2.703-20.164 1.134-26.072-10.27zM124.64 340.326c3.981-26.398 3.912-26.533-21.26-41.185-27.602-16.066-29.59-19.57-16.513-29.115 6.92-5.052 13.915-3.507 33.6 7.423l24.858 13.802 27.746-11.856c15.26-6.52 27.746-13.8 27.746-16.177 0-2.376 9.662-4.32 21.47-4.32 11.81 0 21.41 1.82 21.335 4.047-.337 9.999-23.99 27.209-53.54 38.953-26.705 10.614-32.221 15.178-32.29 26.717-.163 26.975-6.718 38.196-22.314 38.196-14.215 0-14.666-1.103-10.838-26.485zM73.524 351.63c-21.9-1.857-23.353-4.696-12.817-25.034 4.983-9.62 11.883-13.718 23.004-13.66 26.54.138 31.336 5.97 19.902 24.199-8.532 13.603-13.332 15.916-30.089 14.495zm354.5-77.038c-11.68-8.632-28.406-15.695-37.168-15.695-8.76 0-21.287-3.596-27.836-7.991-10.307-6.917-10.671-8.72-2.707-13.407 5.061-2.978 18.864-5.468 30.673-5.533 11.809-.065 29.752-4.943 39.874-10.839 22.597-13.162 31.23-13.534 36.45-1.57 2.668 6.115-.7 12.354-10 18.524l-14.022 9.303 13.818 12.938c13.146 12.308 13.292 13.352 2.988 21.452-9.972 7.84-12.512 7.27-32.07-7.182zM269.83 266.05c-9.71-5.957-13.803-13.897-13.803-26.774 0-14.776 3.753-20.313 19.456-28.713 19.764-10.571 25.41-9.831 50.425 6.608 16.743 11.004 9.28 43.167-11.993 51.693-19.967 8.002-27.21 7.54-44.085-2.814zm200.602-4.739c-12.464-11.67-13.33-14.581-5.67-19.065 27.665-16.194 31.042-16.447 69.18-5.192 51.523 15.205 60.037 20.244 40.76 24.127-85.625 17.249-85.985 17.25-104.27.13zm-347.512-.556c-2.502-5.735 1.184-12.553 10.295-19.042l14.193-10.109-13.156-12.317c-11.701-10.955-12.188-13.473-4.397-22.774 8.485-10.13 9.405-9.908 29.417 7.08 13.994 11.878 26.617 17.535 39.13 17.535 10.16 0 23.64 3.323 29.953 7.384 11.117 7.15 11.07 7.576-1.491 13.489-7.134 3.358-22.125 6.16-33.312 6.225-11.187.066-27.242 4.869-35.677 10.672-18.87 12.983-29.847 13.566-34.955 1.857zM44.985 239.69C21.695 232.533 1.532 225.703.177 224.51c-4.815-4.235 90.391-20.247 101.668-17.1 6.308 1.762 16.13 7.733 21.828 13.27 9.824 9.548 9.421 10.656-7.806 21.445-21.744 13.618-18.24 13.739-70.882-2.436zm303.06-21.613c0-11.858 17.597-25.424 49.117-37.866l36.766-14.512v-26.241c0-24.394 1.08-26.242 15.336-26.242 14.405 0 15.34 1.72 15.383 28.327.046 27.39.861 28.736 24.629 40.674 21.266 10.683 23.712 13.775 18.14 22.932-8.07 13.264-7.79 13.283-38.71-2.654l-25.683-13.239-33.133 15.937c-29.707 14.288-61.846 20.984-61.846 12.884zm-125.797-6.928c-6.769-1.93-25.338-11.478-41.266-21.218l-28.959-17.71-24.435 10.965c-29.894 13.414-29.14 13.41-37.183.191-5.804-9.539-3.368-12.136 21.255-22.658 27.253-11.645 27.81-12.403 27.81-37.787 0-24.033 1.108-25.903 15.337-25.903 14.294 0 15.336 1.816 15.336 26.72 0 25.864.932 27.268 29.14 43.915 32.17 18.987 44.474 30.332 44.474 41.007 0 7.599-2.527 7.89-21.509 2.478zm101.258-22.583c0-6.04 4.831-17.491 10.736-25.447 6.227-8.391 10.735-24.739 10.735-38.929 0-21.261 1.807-24.689 13.803-26.187 12.07-1.508 13.802.659 13.802 17.255 0 18.89.09 18.952 19.063 13.135 15.05-4.615 20.195-4.272 24.444 1.63 9.685 13.45 5.88 20.045-13.752 23.838-10.628 2.053-29.842 13.172-42.7 24.71-26.156 23.47-36.13 26.23-36.13 9.995zm-66.075 1.974c-4.288-1.518-11.937-9.8-16.996-18.406-5.06-8.606-20.185-20.576-33.611-26.6-25.78-11.568-27.588-14.152-18.623-26.615 4.568-6.35 8.566-6.6 21.666-1.35 21.075 8.447 20.043 8.854 24.689-9.749 2.725-10.915 7.76-16.187 15.461-16.187 16.004 0 18.314 5.615 12.17 29.577-3.915 15.267-2.989 24.915 3.443 35.855 9.38 15.953 11.832 37.367 4.2 36.66-2.531-.234-8.11-1.668-12.399-3.185zm31.552-13.925c-2.573-6.677-3.859-26.502-2.858-44.055 1.762-30.913 1.114-32.437-20.687-48.56-16.19-11.974-21.345-19.297-18.37-26.09 5.596-12.773 12.209-11.926 37.07 4.752l21.157 14.194L332.98 64.01c23.958-11.115 28.476-11.755 33.55-4.751 9.099 12.557 7.88 14.22-21.553 29.39l-27.605 14.23-.195 33.495c-.25 42.746-17.656 67.59-28.194 40.24zm194.976-14.205c-6.838-3.812-6.654-7.306 1.081-20.462 8.187-13.924 12.012-15.59 31.252-13.615 25.228 2.59 24.885 1.963 12.563 22.92-9.501 16.161-27.774 20.702-44.896 11.157zM75.28 128.053c-4.613-9.644-7.93-17.794-7.372-18.11.559-.315 9.955-2.07 20.882-3.899 17.5-2.93 20.97-1.447 29.139 12.446 13.554 23.055 11.69 27.1-12.494 27.1-18.748 0-22.931-2.434-30.155-17.537zm305.783-24.413c-4.045-18.969-2.783-20.796 34.949-50.571 21.53-16.99 40.174-29.988 41.43-28.883 3.1 2.726-23.712 73.94-30.822 81.866-3.12 3.48-13.703 8.788-23.516 11.797-17.238 5.285-17.985 4.803-22.04-14.209zm-183.437-.402c-16.255-8.72-19.45-14.68-26.072-48.641-4.15-21.287-7.545-41.35-7.545-44.583 0-5.81 53.43 43.467 63.466 58.532 5.662 8.5-.01 44.682-7 44.649-2.378-.011-12.66-4.492-22.849-9.957zm98.98-51.883c-13.075-17.552-12.512-24.034 3.382-38.914L313.276 0l11.393 16.479c11.199 16.196 11.174 16.75-1.437 32.327-7.056 8.716-13.705 15.848-14.774 15.848-1.07 0-6.403-5.984-11.852-13.299z"/></svg>