<svg xmlns="http://www.w3.org/2000/svg" viewBox="0 0 255.32167 250.60455" height="267.312" width="272.343"><path opacity=".4" d="M89.544.625L70.227 54.27l.118.083-.05.015 7.456 24.383-24.857-5.735-.01.056-.093-.11L.625 95.976l36.8 43.547.125-.064-.011.05 24.85 5.737-17.398 18.66.045.039-.138.022-6.157 56.68 56.118-10.09.01-.142.037.035 17.404-18.662 7.46 24.402.05-.015-.052.134 46.012 33.67 19.316-53.643-.111-.085.055-.017-7.459-24.395 24.85 5.737.011-.05.088.113 52.167-23.016-36.8-43.547-.127.059.016-.057-24.858-5.741 17.394-18.653-.037-.035.14-.017 6.157-56.68-56.119 10.09-.016.144-.039-.042-17.389 18.644-7.453-24.377-.054.017.045-.133L89.546.625zm6.014 19.627c10.536 7.548 21.137 14.996 31.56 22.673a16051.62 16051.62 0 0 1 6.138 19.945l-.015-.01-8.083 25.409-.356-.28-.69.64-1.296-4.24.542-18.448-24.105-33.565-1.214 41.306 10.753 14.974 1.3 4.252-.922-.14-.138.431-20.91-16.545-.02.02c-2.053-6.683-4.104-13.367-6.163-20.05 4.08-10.91 8.163-21.823 12.25-32.732l1.368-3.648zm68.724 31.098v.01c12.763-2.156 25.532-4.261 38.299-6.399-1.249 12.856-2.44 25.721-3.722 38.573-4.774 5.137-9.554 10.266-14.333 15.398l-.01-.018-26.042 5.703.061-.448-.896-.274 3.024-3.243 16.245-8.757 17.018-37.658-36.381 19.603-7.591 16.798-3.035 3.253-.337-.868-.44.095 3.87-26.38-.039-.014c4.77-5.122 9.54-10.243 14.303-15.37zM56.044 84.587c6.782 1.547 13.565 3.102 20.346 4.658l-.01.013 17.965 19.703-.424.17.214.912-4.321-.997-15.702-9.69-41.124 4.093 35.167 21.703 18.344-1.824 4.329 1.001-.584.727.307.335-24.784 9.836.01.031c-6.816-1.566-13.632-3.132-20.45-4.692-7.408-8.989-14.817-17.98-22.221-26.974-.826-1.003-1.647-2.006-2.472-3.01 11.804-5.35 23.551-10.802 35.411-15.99zm62.088 9.543l13.425 14.296 18.338-6.967-5.671 18.78 15.203 12.398-19.098 4.479-3.136 19.359-13.426-14.296-18.331 6.965 5.665-18.778-15.198-12.4 19.093-4.477 3.136-19.359zm71.415 21.215c6.82 1.57 13.643 3.138 20.465 4.7 8.248 9.975 16.456 19.984 24.69 29.972-11.757 5.346-23.493 10.748-35.264 16.065-6.835-1.566-13.668-3.142-20.502-4.716l.01-.013-17.959-19.705.418-.168-.21-.92 4.321.997 15.705 9.696 41.121-4.098-35.167-21.704-18.344 1.825-4.335-1 .584-.727-.301-.337 24.778-9.834-.01-.036zm-118.75 36.332v.012l26.047-5.705-.067.45.904.278-3.024 3.243-16.246 8.751-17.019 37.658 36.384-19.597 7.589-16.804 3.028-3.25.34.873.446-.097-3.876 26.381.029.011c-4.763 5.118-9.528 10.234-14.286 15.358-11.49 1.922-22.982 3.842-34.472 5.757l-3.84.64c1.268-12.9 2.412-25.806 3.85-38.672 4.73-5.1 9.47-10.193 14.208-15.287zm60.414 10.292v.01l1.296 4.24-.542 18.447 24.105 33.565 1.215-41.306-10.753-14.974-1.3-4.252.921.14.139-.431 20.909 16.545.029-.035c2.046 6.692 4.102 13.382 6.156 20.071-4.514 12.13-9.073 24.252-13.606 36.377-10.509-7.51-21.053-14.972-31.542-22.508-2.062-6.703-4.116-13.414-6.171-20.12l.015.01 8.082-25.408.357.28.69-.64z"/></svg>