<svg xmlns="http://www.w3.org/2000/svg" viewBox="0 0 229.60088 176.91171" height="188.706" width="244.908"><path opacity=".4" d="M53.072 173.686c-2.017-1.774-2.008-7.028.02-11.676 2.433-5.577 1.246-7.124-3.49-4.55-4.255 2.313-7.177.624-7.177-4.147 0-4.426 5.886-9.691 13.08-11.7 10.31-2.877 11.284-4.668 4.6-8.456-7.127-4.04-7.012-5.653.724-10.12 5.06-2.921 12.357-5.35 16.213-5.395 3.857-.045 8.6-3.725 10.543-8.176 4.74-10.864-16.555-10.811-26.82.067-5.856 6.206-9.707 6.694-16.087 2.037-6.293-4.594-10.686-4.446-17.59.594-5.06 3.694-9.201 5.205-9.201 3.358 0-9.238-1.56-11.79-9.638-15.766-11.338-5.582-11.057-11.874 1.27-28.422 9.227-12.386 10.896-12.787 20.713-4.973 9.737 7.75 11.025 7.701 14.63-.562 3.663-8.396 4.767-8.413 15.044-.233 6.1 4.856 16.042 8.828 22.094 8.828 9.085 0 9.672-1.41 3.367-8.093-4.2-4.452-11.277-8.094-15.726-8.094-11.73 0-17.847-11.276-8.788-16.2 5.536-3.009 4.017-5.24-5.348-7.854-12.79-3.57-18.432-13.715-7.627-13.715 2.999 0 5.07-4.244 4.6-9.432-.66-7.305 4.5-9.694 22.876-10.595C98.874-.743 99.05-.602 95.706 16.587c-1.856 9.537-1.951 14.305-.211 10.595 6.19-13.197 14.41-6.454 14.41 11.822 0 10.212 2.76 20.067 6.134 21.901 6.672 3.627 8.085-2.358 6.231-26.393-.977-12.676.754-14.942 9.235-12.08 8.605 2.905 9.77 1.185 6.635-9.802C134.566.105 135.72-.627 157.395.43c15.837.771 23.057 3.657 23.057 9.216 0 4.452 4.102 10.356 9.116 13.121 7.337 4.047 5.541 6.368-9.202 11.897-10.075 3.778-14.867 6.98-10.65 7.113 13.295.422 8.319 11.084-7.668 16.43-8.435 2.821-15.336 7.617-15.336 10.658 0 8.305 15.845 6.649 24.538-2.564 10.06-10.662 18.403-10.283 18.403.836 0 8.248.874 8.234 11.436-.172 10.826-8.618 12.003-8.34 22.105 5.22 10.219 13.718 8.501 24.387-7.228 44.892-.934 1.218-7.237-2.193-14.006-7.581-11.055-8.8-12.307-8.888-12.307-.866 0 11.12-8.342 11.498-18.403.836-4.2-4.451-13.51-8.013-20.688-7.914-13.028.18-13.027.198.833 10.366 7.636 5.602 17.298 11.407 21.47 12.899 5.705 2.04 5.383 4.06-1.295 8.148-7.133 4.365-5.57 6.167 7.935 9.148 15.116 3.337 20.396 17.518 5.503 14.777-3.4-.626-5.815 3.011-5.368 8.082.617 7.01-4.717 9.492-22.245 10.355-21.676 1.066-22.83.336-19.255-12.19 3.13-10.967 1.963-12.705-6.588-9.819-8.68 2.93-10.055.584-8.35-14.242 1.237-10.766-.978-18.667-5.63-20.082-5.2-1.583-7.667 3.886-7.667 17 0 19.042-7.896 25.78-14.753 12.59-1.929-3.709-1.94 1.147-.024 10.792 3.367 16.957 2.791 17.536-17.453 17.536-11.515 0-22.586-1.452-24.603-3.226z"/></svg>