<svg xmlns="http://www.w3.org/2000/svg" width="88" height="78" viewBox="0 0 88 78"><path d="M87 9.2a39.4 39.4 0 0 1-11.32 3.1c4.07-2.4 7.2-6.3 8.6-10.9-3.81 2.26-8.03 3.9-12.51 4.78A19.69 19.69 0 0 0 57.5 0C46.62 0 37.8 8.82 37.8 19.7c0 1.54.17 3.05.51 4.49-16.38-.82-30.9-8.66-40.61-20.58-1.7 2.91-2.67 6.29-2.67 9.9 0 6.84 3.48 12.87 8.76 16.4-3.23-.1-6.27-.99-8.92-2.46v.25c0 9.55 6.79 17.51 15.8 19.32-1.65.45-3.39.69-5.19.69-1.27 0-2.5-.12-3.71-.35 2.51 7.83 9.78 13.52 18.4 13.68A39.552 39.552 0 0 1-4.3 69.47c-1.59 0-3.16-.09-4.7-.28a55.753 55.753 0 0 0 30.2 8.85c36.24 0 56.05-30.02 56.05-56.06 0-.85-.02-1.7-.06-2.55 3.85-2.78 7.19-6.25 9.83-10.2"/></svg>